HIERARCHY
ROOT Hips
{
	OFFSET 0.000000 0.000000 0.000000
	CHANNELS 6 Xposition Yposition Zposition Zrotation Yrotation Xrotation 
	JOINT LHipJoint
	{
		OFFSET 0.000000 0.000000 0.000000
		CHANNELS 3 Zrotation Yrotation Xrotation
		JOINT LeftUpLeg
		{
			OFFSET 1.363060 -1.794630 0.839290
			CHANNELS 3 Zrotation Yrotation Xrotation
			JOINT LeftLeg
			{
				OFFSET 2.448110 -6.726130 0.000000
				CHANNELS 3 Zrotation Yrotation Xrotation
				JOINT LeftFoot
				{
					OFFSET 2.562200 -7.039590 0.000000
					CHANNELS 3 Zrotation Yrotation Xrotation
					JOINT LeftToeBase
					{
						OFFSET 0.157640 -0.433110 2.322550
						CHANNELS 3 Zrotation Yrotation Xrotation
						End Site
						{
							OFFSET 0.000000 0.000000 0.000000
						}
					}
				}
			}
		}
	}
	JOINT RHipJoint
	{
		OFFSET 0.000000 0.000000 0.000000
		CHANNELS 3 Zrotation Yrotation Xrotation
		JOINT RightUpLeg
		{
			OFFSET -1.305520 -1.794630 0.839290
			CHANNELS 3 Zrotation Yrotation Xrotation
			JOINT RightLeg
			{
				OFFSET -2.542530 -6.985550 0.000000
				CHANNELS 3 Zrotation Yrotation Xrotation
				JOINT RightFoot
				{
					OFFSET -2.568260 -7.056230 0.000000
					CHANNELS 3 Zrotation Yrotation Xrotation
					JOINT RightToeBase
					{
						OFFSET -0.164730 -0.452590 2.363150
						CHANNELS 3 Zrotation Yrotation Xrotation
						End Site
						{
							OFFSET 0.000000 0.000000 0.000000
						}
					}
				}
			}
		}
	}
	JOINT LowerBack
	{
		OFFSET 0.000000 0.000000 0.000000
		CHANNELS 3 Zrotation Yrotation Xrotation
		JOINT Spine
		{
			OFFSET 0.028270 2.035590 -0.193380
			CHANNELS 3 Zrotation Yrotation Xrotation
			JOINT Spine1
			{
				OFFSET 0.056720 2.048850 -0.042750
				CHANNELS 3 Zrotation Yrotation Xrotation
				JOINT Neck
				{
					OFFSET 0.000000 0.000000 0.000000
					CHANNELS 3 Zrotation Yrotation Xrotation
					JOINT Neck1
					{
						OFFSET -0.054170 1.746240 0.172020
						CHANNELS 3 Zrotation Yrotation Xrotation
						JOINT Head
						{
							OFFSET 0.104070 1.761360 -0.123970
							CHANNELS 3 Zrotation Yrotation Xrotation
							End Site
							{
								OFFSET 0.000000 0.000000 0.000000
							}
						}
					}
				}
				JOINT LeftShoulder
				{
					OFFSET 0.000000 0.000000 0.000000
					CHANNELS 3 Zrotation Yrotation Xrotation
					JOINT LeftArm
					{
						OFFSET 3.362410 1.200890 -0.311210
						CHANNELS 3 Zrotation Yrotation Xrotation
						JOINT LeftForeArm
						{
							OFFSET 4.983000 -0.000000 -0.000000
							CHANNELS 3 Zrotation Yrotation Xrotation
							JOINT LeftHand
							{
								OFFSET 3.483560 -0.000000 -0.000000
								CHANNELS 3 Zrotation Yrotation Xrotation
								JOINT LeftFingerBase
								{
									OFFSET 0.000000 0.000000 0.000000
									CHANNELS 3 Zrotation Yrotation Xrotation
									JOINT LeftHandIndex1
									{
										OFFSET 0.715260 -0.000000 -0.000000
										CHANNELS 3 Zrotation Yrotation Xrotation
										End Site
										{
											OFFSET 0.000000 0.000000 0.000000
										}
									}
								}
								JOINT LThumb
								{
									OFFSET 0.000000 0.000000 0.000000
									CHANNELS 3 Zrotation Yrotation Xrotation
									End Site
									{
										OFFSET 0.000000 0.000000 0.000000
									}
								}
							}
						}
					}
				}
				JOINT RightShoulder
				{
					OFFSET 0.000000 0.000000 0.000000
					CHANNELS 3 Zrotation Yrotation Xrotation
					JOINT RightArm
					{
						OFFSET -3.136600 1.374050 -0.404650
						CHANNELS 3 Zrotation Yrotation Xrotation
						JOINT RightForeArm
						{
							OFFSET -5.241900 -0.000000 -0.000000
							CHANNELS 3 Zrotation Yrotation Xrotation
							JOINT RightHand
							{
								OFFSET -3.444170 -0.000000 -0.000000
								CHANNELS 3 Zrotation Yrotation Xrotation
								JOINT RightFingerBase
								{
									OFFSET 0.000000 0.000000 0.000000
									CHANNELS 3 Zrotation Yrotation Xrotation
									JOINT RightHandIndex1
									{
										OFFSET -0.622530 -0.000000 -0.000000
										CHANNELS 3 Zrotation Yrotation Xrotation
										End Site
										{
											OFFSET 0.000000 0.000000 0.000000
										}
									}
								}
								JOINT RThumb
								{
									OFFSET 0.000000 0.000000 0.000000
									CHANNELS 3 Zrotation Yrotation Xrotation
									End Site
									{
										OFFSET 0.000000 0.000000 0.000000
									}
								}
							}
						}
					}
				}
			}
		}
	}
}
MOTION
Frames: 6
Frame Time: 0.008333
-16.391436 17.779520 42.254921 -179.369542 -13.177309 -168.284026 -2.974846 -0.495390 1.689034 -14.342844 -4.769085 4.512033 -1.249349 0.206011 2.026374 0.820505 -7.019840 1.543844 0.198700 2.870300 7.917700 1.202966 1.981070 -2.342813 10.118653 2.585246 -32.131339 0.952805 -8.969283 22.104785 -2.396749 3.941210 11.488596 -1.076700 -6.595700 18.523100 -0.201267 -1.192665 -8.339706 1.570716 -2.134793 -3.634786 -0.256113 -1.085758 8.015646 -7.106996 -1.256187 -0.856493 9.863174 -4.109853 1.153469 3.866600 -2.077700 -4.061100 6.817331 -3.802963 1.454792 -98.274461 -7.173885 8.423092 6.477447 -11.522135 -0.700183 -0.074100 -0.315245 42.849573 6.896108 8.912426 1.081800 -7.125000 0.000000 0.000000 -17.334900 38.668000 2.803900 -7.180449 2.444499 2.529790 94.390560 -3.172024 -0.736920 -12.163283 23.921272 -2.754380 0.651164 -1.578971 35.607314 -1.617803 -8.964328 0.430700 7.125000 0.000000 0.000000 20.044800 -37.317100 3.986300 
-16.401842 17.785498 42.259239 -179.352294 -13.158300 -168.373107 -2.983541 -0.502469 1.678437 -14.390216 -4.761950 4.465186 -1.252197 0.207694 2.022545 0.808316 -6.886983 1.580573 0.259300 3.275900 9.047900 1.236918 1.980467 -2.318528 10.136651 2.475325 -32.025159 1.001256 -8.863922 21.841558 -2.385866 3.781953 12.092304 -0.874900 -5.963400 16.678300 -0.141684 -1.202215 -8.247507 1.556406 -2.144037 -3.630271 -0.376785 -1.080927 7.980444 -7.222433 -1.273317 -0.809604 10.027147 -4.175922 1.040684 3.985600 -2.114000 -4.094600 6.795692 -3.830136 1.460882 -98.150948 -7.359631 4.512835 6.050899 -10.766382 -0.608027 -0.087949 -0.295508 46.330219 6.743399 9.148792 1.083500 -7.125000 0.000000 0.000000 -17.513400 38.870200 2.744400 -7.228159 2.451928 2.525567 94.577093 -3.237958 -1.233608 -11.981530 23.724225 -2.703928 0.634004 -1.576248 35.896766 -1.719566 -8.768505 0.432700 7.125000 0.000000 0.000000 19.919000 -37.138500 4.050800 
-16.404388 17.790148 42.263888 -179.013071 -13.196012 -168.560454 -2.995946 -0.491652 1.688178 -14.048858 -4.751745 4.413080 -1.254539 0.208598 2.028702 0.796691 -6.694325 1.606978 0.308600 3.571200 9.873400 1.289072 1.970492 -2.287355 10.417061 2.588904 -31.876940 1.028853 -8.823088 21.743390 -2.327342 3.527275 12.467100 -0.782400 -5.647000 15.763600 0.186582 -1.208660 -8.097073 1.579378 -2.193311 -3.633010 -0.476156 -1.090375 7.907031 -7.344160 -1.314482 -0.863815 10.173704 -4.253182 1.072825 4.087800 -2.147700 -4.038600 6.790260 -3.845328 1.461705 -98.001031 -7.343370 0.743069 5.713081 -10.178629 -0.541545 -0.098306 -0.271264 49.614005 6.766138 9.046052 1.075200 -7.125000 0.000000 0.000000 -17.455100 38.757400 2.784900 -7.267417 2.462768 2.508884 94.675177 -3.184294 -1.768313 -11.673737 23.367716 -2.624993 0.618315 -1.573153 36.358585 -1.763562 -8.728307 0.435800 7.125000 0.000000 0.000000 19.880000 -37.107500 4.058000 
-16.424314 17.794908 42.275844 -179.504222 -13.119837 -168.340227 -3.002230 -0.534223 1.651275 -14.670391 -4.826802 4.203314 -1.265787 0.210752 2.007425 0.774718 -6.495577 1.541605 0.388200 4.000900 11.079100 1.252629 1.996376 -2.299309 9.970166 2.192040 -32.030469 1.065882 -8.719496 21.489363 -2.419301 3.636548 13.417570 -0.657500 -5.186200 14.440300 -0.210968 -1.260973 -8.179154 1.523904 -2.200325 -3.651956 -0.544665 -1.101229 7.874128 -7.337351 -1.394296 -0.850290 10.186342 -4.368370 0.992130 4.104200 -2.206700 -4.062300 6.770437 -3.850181 1.462335 -97.846538 -7.300019 -2.815569 5.435716 -9.701239 -0.490468 -0.107912 -0.246030 52.820490 6.944953 8.868186 1.083600 -7.125000 0.000000 0.000000 -17.246600 38.585600 2.824900 -7.309504 2.465854 2.496725 94.724399 -3.143030 -2.163167 -11.439896 23.097073 -2.565330 0.605850 -1.567937 36.712347 -1.788728 -8.672860 0.435400 7.125000 0.000000 0.000000 19.852600 -37.061700 4.075400 
-16.435274 17.799336 42.278279 -179.628265 -13.070616 -168.420177 -3.011444 -0.541153 1.635500 -14.898163 -4.801061 4.224229 -1.269381 0.216099 2.002808 0.758998 -6.320098 1.424156 0.486400 4.471900 12.408400 1.270485 1.987159 -2.274535 9.803590 2.138986 -31.844444 1.094552 -8.637521 21.295903 -2.420279 3.500608 13.947566 -0.527900 -4.656000 12.929900 -0.361288 -1.290043 -8.102506 1.515696 -2.214284 -3.641273 -0.519228 -1.111545 7.870554 -7.300571 -1.441955 -0.724188 10.166351 -4.451929 0.784448 4.102500 -2.257100 -4.173600 6.764402 -3.852123 1.475447 -97.718720 -7.267862 -5.963106 5.236541 -9.360615 -0.455633 -0.115921 -0.226996 55.574432 7.088667 8.826051 1.101700 -7.125000 0.000000 0.000000 -17.106200 38.546000 2.817500 -7.310726 2.467621 2.504547 94.718585 -3.181286 -2.376305 -11.342361 22.971920 -2.542182 0.620035 -1.562198 36.875736 -1.501859 -8.775271 0.404100 7.125000 0.000000 0.000000 20.108200 -37.156400 4.084100 
-16.443687 17.810627 42.276065 -179.508687 -13.048333 -168.691923 -3.023601 -0.537556 1.619951 -14.873017 -4.762203 4.245939 -1.274683 0.221888 2.000145 0.724257 -5.932137 1.447103 0.717200 5.411900 15.087200 1.322622 1.964134 -2.221557 9.863200 2.153141 -31.519605 1.121841 -8.573253 21.171317 -2.408566 3.317110 14.667147 -0.287800 -3.450000 9.534200 -0.265071 -1.271252 -7.905725 1.517956 -2.193157 -3.611933 -0.567640 -1.094528 7.876285 -7.263130 -1.469931 -0.658569 10.213894 -4.512917 0.645047 4.128300 -2.297000 -4.237500 6.763022 -3.851803 1.491902 -97.487134 -7.110236 -7.487864 5.176009 -9.255700 -0.445318 -0.118366 -0.223802 56.663046 7.029792 8.902757 1.101200 -7.125000 0.000000 0.000000 -17.174200 38.613300 2.800000 -7.322376 2.467631 2.508414 94.795722 -3.166906 -2.847515 -11.191573 22.783758 -2.505937 0.631879 -1.555497 37.317083 -1.167731 -8.810341 0.362400 7.125000 0.000000 0.000000 20.384800 -37.190400 4.128300 
